<?xml version="1.0" encoding="utf-8"?>
<!-- Generator: Adobe Illustrator 25.4.1, SVG Export Plug-In . SVG Version: 6.00 Build 0)  -->
<svg version="1.1" id="Layer_1" xmlns="http://www.w3.org/2000/svg" xmlns:xlink="http://www.w3.org/1999/xlink" x="0px" y="0px"
	 viewBox="0 0 792 612" style="enable-background:new 0 0 792 612;" xml:space="preserve">
<style type="text/css">
	.st0{fill:#FFFFFF;}
</style>
<g>
	<path class="st0" d="M184.13,279.74h-8.51v-14.54h40.21c16.76,0,28.81,8.64,28.81,23.97c0,10.35-5.63,17.03-11.26,19.91v0.26
		c10.08,3.01,14.93,12.44,14.93,21.87c0,18.6-14.8,26.98-32.09,26.98h-23.18c-6.16,0-8.91-2.62-8.91-8.91V279.74z M215.96,303.19
		c7.2,0,11.26-5.24,11.26-11.92c0-6.68-3.93-11.53-11.53-11.53h-14.41v23.44H215.96z M204.17,343.66h13.36
		c8.38,0,13.1-5.63,13.1-13.49c0-7.73-4.85-13.36-13.1-13.36h-16.24v23.97C201.29,342.61,202.34,343.66,204.17,343.66z"/>
	<path class="st0" d="M288.8,289.83c19.12,0,29.6,14.01,29.6,31.69c0,1.96-0.39,6.15-0.39,6.15h-46.1
		c1.31,11.79,9.95,17.94,20.04,17.94c10.74,0,18.73-7.47,18.73-7.47l6.94,11.53c0,0-10.22,10.08-26.85,10.08
		c-22.13,0-35.89-15.98-35.89-34.97C254.88,304.24,268.77,289.83,288.8,289.83z M301.38,316.15c-0.26-7.99-5.76-13.49-12.57-13.49
		c-8.51,0-14.54,5.11-16.37,13.49H301.38z"/>
	<path class="st0" d="M359.02,289.83c19.12,0,29.6,14.01,29.6,31.69c0,1.96-0.39,6.15-0.39,6.15h-46.1
		c1.31,11.79,9.95,17.94,20.04,17.94c10.74,0,18.73-7.47,18.73-7.47l6.94,11.53c0,0-10.22,10.08-26.85,10.08
		c-22.13,0-35.89-15.98-35.89-34.97C325.1,304.24,338.98,289.83,359.02,289.83z M371.59,316.15c-0.26-7.99-5.76-13.49-12.57-13.49
		c-8.51,0-14.54,5.11-16.37,13.49H371.59z"/>
	<path class="st0" d="M403.61,308.43c0-1.97-1.05-2.88-2.88-2.88h-5.24V291.4h15.19c5.89,0,8.9,2.49,8.9,8.12v3.93
		c0,2.49-0.26,4.19-0.26,4.19h0.26c3.01-9.56,11-17.16,21.22-17.16c1.44,0,3.01,0.26,3.01,0.26v16.37c0,0-1.7-0.26-4.06-0.26
		c-7.07,0-15.19,4.06-18.2,14.01c-0.92,3.27-1.44,6.94-1.44,10.87v26.45h-16.5V308.43z"/>
	<path class="st0" d="M184.93,447.14c0,0,9.56,11,22.53,11c7.07,0,13.36-3.8,13.36-11c0-15.85-43.74-14.54-43.74-43.48
		c0-15.06,13.1-26.19,31.04-26.19c10.87,0,27.63,5.11,27.63,18.33v8.64h-15.45v-4.19c0-4.32-6.16-7.2-12.31-7.2
		c-7.86,0-13.62,4.06-13.62,9.95c0,15.85,43.74,12.7,43.74,43.22c0,14.8-11.4,27.37-30.91,27.37c-20.56,0-31.96-14.4-31.96-14.4
		L184.93,447.14z"/>
	<path class="st0" d="M279.85,403.66c8.64,0,24.23,3.54,24.23,15.06v7.86h-14.67v-3.67c0-3.67-5.5-5.24-9.56-5.24
		c-11.53,0-19.78,8.78-19.78,20.82c0,13.62,10.08,20.56,20.82,20.56c11.4,0,19.78-9.04,19.78-9.04l6.94,11.53
		c0,0-9.95,12.05-28.16,12.05c-22,0-36.15-15.58-36.15-34.97C243.31,419.77,256.93,403.66,279.85,403.66z"/>
	<path class="st0" d="M315.41,394.4c0-1.96-1.05-2.88-2.88-2.88h-5.24v-14.15h15.85c6.15,0,8.91,2.75,8.91,8.78v25.11
		c0,3.27-0.26,5.63-0.26,5.63h0.26c3.14-6.42,11.39-13.23,22.92-13.23c14.93,0,23.31,7.73,23.31,25.41v26.06
		c0,1.83,1.05,2.88,2.88,2.88h5.24v14.01h-15.85c-6.15,0-8.78-2.62-8.78-8.91v-30.65c0-8.12-2.23-13.62-10.61-13.62
		c-8.78,0-15.59,5.76-18.07,13.88c-0.79,2.62-1.05,5.5-1.05,8.64v30.65h-16.63V394.4z"/>
	<path class="st0" d="M424.64,403.66c20.43,0,36.67,14.54,36.67,34.97c0,20.56-16.24,34.97-36.67,34.97
		c-20.3,0-36.54-14.4-36.54-34.97C388.1,418.2,404.34,403.66,424.64,403.66z M424.64,459.45c10.87,0,19.91-8.38,19.91-20.82
		c0-12.31-9.04-20.82-19.91-20.82c-10.74,0-19.78,8.51-19.78,20.82C404.86,451.07,413.9,459.45,424.64,459.45z"/>
	<path class="st0" d="M470.44,394.4c0-1.96-1.05-2.88-2.88-2.88h-5.24v-14.15h15.85c6.16,0,8.91,2.75,8.91,8.91v68.85
		c0,1.83,1.05,2.88,2.88,2.88h5.11v14.01h-15.72c-6.29,0-8.91-2.62-8.91-8.91V394.4z"/>
	<path class="st0" d="M539.71,430.12h2.1v-0.52c0-9.56-3.8-13.1-12.31-13.1c-3.01,0-8.9,0.79-8.9,4.45v3.54h-15.45v-7.07
		c0-12.44,17.55-13.75,24.49-13.75c22.26,0,28.81,11.65,28.81,26.59v24.88c0,1.83,1.05,2.88,2.88,2.88h5.24v14.01h-14.93
		c-6.16,0-8.51-3.4-8.51-7.33c0-1.7,0.13-2.88,0.13-2.88h-0.26c0,0-5.11,11.79-20.17,11.79c-11.92,0-22.79-7.46-22.79-20.82
		C500.03,431.82,528.84,430.12,539.71,430.12z M526.88,460.63c8.9,0,15.19-9.43,15.19-17.55v-1.57h-2.88
		c-8.64,0-22.4,1.18-22.4,10.48C516.79,456.44,520.07,460.63,526.88,460.63z"/>
	<path class="st0" d="M576.56,422.26c0-1.97-1.05-2.88-2.88-2.88h-5.24v-14.15h15.19c5.89,0,8.9,2.49,8.9,8.12v3.93
		c0,2.49-0.26,4.19-0.26,4.19h0.26c3.01-9.56,11-17.16,21.22-17.16c1.44,0,3.01,0.26,3.01,0.26v16.37c0,0-1.7-0.26-4.06-0.26
		c-7.07,0-15.19,4.06-18.2,14.01c-0.92,3.27-1.44,6.94-1.44,10.87v26.45h-16.5V422.26z"/>
	<g>
		<path class="st0" d="M555,238.45c0.88,4.95,2.82,9.6,2.57,14.55c-0.35,7.1-5.73,11.39-6.2,18.4l-4.54,56.58
			c-0.27,3.68-1.91,6.41-4.51,8.42c0.15-0.71,0.26-1.45,0.32-2.23l4.53-61.99c0.46-7.56,5.85-12.18,6.2-19.84
			c0.22-4.74-1.29-9.21-2.25-13.9h-55.87c-1.65,5.98-2.41,13.52,0.31,16.15c-0.46,0.33-1.01,0.51-1.66,0.52
			c-5.17,0.03-4.95-9-3.27-16.67h-5.5c-0.88,5.19-2.82,10.05-2.57,15.23c0.35,7.44,5.74,11.92,6.2,19.27l4.54,59.85
			c0.83,12.13,15.39,14.42,30.02,14.49c14.8,0.08,29.67-2.2,30.45-14.49l4.61-59.85c0.47-7.35,5.85-11.83,6.2-19.27
			c0.25-5.18-1.69-10.04-2.57-15.23H555z"/>
		<path class="st0" d="M570.61,233.11c0.41-6.55,0.13-14.47,0.55-21.02l0.1-1.54c0.62-0.9,1.08-1.82,1.37-2.79
			c1.35-4.52-3.11-16.27-5.24-21.45l-3.94,1.09l-3.96,1.09l-32.22,8.91c-1.16,0.32-2.37,0.48-3.57,0.48c-1.2,0-2.4-0.16-3.57-0.48
			l-32.25-8.92l-3.98-1.1l-3.94-1.09c-2.09,5.12-6.45,16.72-5.25,21.34c0.26,1,0.67,2,1.21,2.98l0.09,1.47
			c0.42,6.54,0.14,14.47,0.55,21.02c0.07,1.06,0,2.13-0.13,3.18c-0.82,6.3-3.15,11-2.83,17.81c0.17,3.77,1.1,7.09,2.66,10.51
			c0.97,2.13,2.28,4.32,3.04,6.51c0.27,0.78,0.46,1.57,0.51,2.39l5.5,73.9c0.83,13.13,29.04,14.33,38.25,14.41
			c9.25-0.07,37.46-1.28,38.29-14.41l5.5-73.9c0.05-0.83,0.24-1.62,0.5-2.39c0.76-2.19,2.07-4.38,3.04-6.51
			c1.56-3.42,2.48-6.74,2.66-10.51c0.32-6.81-2-11.5-2.82-17.81C570.61,235.24,570.54,234.17,570.61,233.11z M569.08,253.89
			c-0.42,8.99-5.8,12.9-6.21,19.34l-5.5,73.9c-0.42,6.67-16.99,10.07-33.79,10.21c-16.79-0.13-33.37-3.53-33.79-10.21l-5.5-73.9
			c-0.41-6.45-5.78-10.35-6.2-19.34c-0.37-7.83,3.39-14.04,2.95-21.06c-0.32-5.11-0.23-11.03-0.37-16.51
			c8.61,7.56,25.03,13.28,43,13.28c11.25,0,22.82-2.93,32.6-8.24c4-2.18,7.5-4.18,10.24-6.22c-0.19,5.79-0.05,12.2-0.4,17.68
			C565.69,239.85,569.45,246.06,569.08,253.89z"/>
		<path class="st0" d="M611.46,162.53l-86.71-23.98c-0.68-0.19-1.42-0.19-2.1,0l-86.71,23.98c-1.51,0.42-2.54,1.67-2.54,3.1
			c0,1.42,1.03,2.67,2.54,3.09l27.16,7.51c-2.11,2.16-3.76,4.42-4.94,6.77c-0.46,0.92-0.85,1.86-1.17,2.81
			c-3.55,0.88-6.16,3.81-6.16,7.29c0,2.23,1.07,4.23,2.77,5.61c-1.53,13.67-11.3,30.6-29.05,42.83c0,0,11.94,12.33,23.35,9.16
			c10.94-3.04,18.28-20.79,15.7-51.17c1.4-0.78,2.51-1.91,3.21-3.26c0.49-0.97,0.78-2.04,0.78-3.17c0-1.97-0.84-3.76-2.21-5.11
			c0.32-0.91,0.73-1.8,1.23-2.65c1.39-2.37,3.43-4.53,5.91-6.5c1.07-0.85,2.22-1.66,3.43-2.43c1.26-0.8,2.58-1.57,3.94-2.3
			c0.98-0.52,1.98-1.02,3-1.5c2.04-0.92,4.24-1.8,6.59-2.65c0.69-0.25,1.4-0.5,2.12-0.74c1.24-0.42,2.53-0.84,3.85-1.24
			c0.12-0.03,0.23-0.07,0.36-0.11c1.9-0.57,3.78-1.1,5.63-1.59c11.92-3.13,22.18-4.46,22.67-4.52c2.38-0.3,4.57,1.19,4.91,3.34
			c0.33,2.15-1.32,4.13-3.7,4.43c-0.11,0.01-8.8,1.14-19.18,3.71c-2.49,0.62-5.08,1.32-7.67,2.1c-1.2,0.37-2.35,0.73-3.47,1.11
			c-1,0.34-1.98,0.68-2.92,1.03c-0.96,0.36-1.89,0.72-2.79,1.08c-0.75,0.31-1.48,0.62-2.18,0.93c-1.31,0.58-2.53,1.17-3.68,1.77
			c-0.25,0.13-0.5,0.27-0.74,0.4l0.48,0.14l3.96,1.09l3.97,1.1l31.55,8.72c0.34,0.09,0.7,0.14,1.05,0.14c0.36,0,0.71-0.05,1.05-0.14
			l31.5-8.71l3.96-1.1l3.96-1.09l47.29-13.08c1.51-0.42,2.54-1.67,2.54-3.09C614,164.2,612.97,162.94,611.46,162.53z"/>
	</g>
</g>
</svg>
