<?xml version="1.0" encoding="utf-8"?>
<!-- Generator: Adobe Illustrator 25.4.1, SVG Export Plug-In . SVG Version: 6.00 Build 0)  -->
<svg version="1.1" id="Layer_1" xmlns="http://www.w3.org/2000/svg" xmlns:xlink="http://www.w3.org/1999/xlink" x="0px" y="0px"
	 viewBox="0 0 792 612" style="enable-background:new 0 0 792 612;" xml:space="preserve">
<style type="text/css">
	.st0{fill:#AD8845;}
</style>
<g>
	<path class="st0" d="M467.45,282.67c1.75,9.91,5.64,19.2,5.15,29.1c-0.7,14.2-11.47,22.78-12.39,36.81l-9.08,113.16
		c-0.53,7.36-3.82,12.81-9.01,16.85c0.31-1.41,0.52-2.9,0.63-4.47l9.07-123.98c0.93-15.12,11.69-24.36,12.41-39.67
		c0.43-9.47-2.58-18.42-4.49-27.79H347.99c-3.29,11.97-4.83,27.03,0.61,32.3c-0.92,0.66-2.03,1.02-3.31,1.03
		c-10.34,0.05-9.89-18-6.53-33.33h-11c-1.76,10.38-5.64,20.09-5.15,30.46c0.7,14.87,11.47,23.85,12.4,38.54l9.08,119.7
		c1.67,24.25,30.79,28.84,60.04,28.99c29.6,0.16,59.34-4.4,60.9-28.99l9.21-119.7c0.93-14.69,11.7-23.67,12.4-38.54
		c0.49-10.37-3.39-20.08-5.15-30.46H467.45z"/>
	<path class="st0" d="M498.67,271.99c0.82-13.1,0.27-28.95,1.09-42.03l0.2-3.08c1.24-1.79,2.17-3.65,2.75-5.59
		c2.7-9.03-6.23-32.54-10.48-42.89l-7.88,2.18l-7.93,2.19l-64.44,17.82c-2.33,0.64-4.73,0.96-7.15,0.96c-2.4,0-4.81-0.32-7.14-0.96
		l-64.5-17.84l-7.95-2.2l-7.87-2.18c-4.17,10.25-12.9,33.44-10.49,42.68c0.52,2,1.35,3.99,2.42,5.96l0.18,2.95
		c0.83,13.09,0.28,28.93,1.11,42.03c0.13,2.13,0,4.26-0.26,6.37c-1.64,12.61-6.29,22-5.65,35.62c0.35,7.54,2.2,14.19,5.32,21.02
		c1.93,4.25,4.57,8.63,6.07,13.01c0.54,1.55,0.92,3.14,1.02,4.79l10.99,147.8c1.66,26.26,58.07,28.67,76.5,28.82
		c18.5-0.15,74.92-2.56,76.58-28.82l10.99-147.8c0.1-1.65,0.47-3.23,1.01-4.79c1.51-4.38,4.14-8.76,6.08-13.01
		c3.13-6.84,4.97-13.48,5.32-21.02c0.64-13.62-4.01-23.01-5.64-35.62C498.66,276.25,498.54,274.12,498.67,271.99z M495.62,313.55
		c-0.85,17.98-11.6,25.79-12.41,38.68l-11,147.8c-0.84,13.35-33.99,20.15-67.57,20.41c-33.58-0.26-66.73-7.06-67.58-20.41l-11-147.8
		c-0.81-12.89-11.55-20.7-12.4-38.68c-0.74-15.66,6.79-28.08,5.9-42.12c-0.65-10.22-0.46-22.07-0.73-33.02
		c17.22,15.13,50.05,26.56,86,26.56c22.49,0,45.64-5.85,65.19-16.47c8.01-4.35,14.99-8.36,20.49-12.43
		c-0.38,11.58-0.11,24.41-0.8,35.36C488.83,285.47,496.36,297.89,495.62,313.55z"/>
	<path class="st0" d="M580.37,130.83L406.95,82.87c-1.37-0.38-2.83-0.38-4.2,0l-173.43,47.96c-3.02,0.83-5.07,3.35-5.07,6.2
		c0,2.84,2.05,5.35,5.07,6.19l54.33,15.03c-4.22,4.32-7.52,8.84-9.88,13.54c-0.92,1.84-1.7,3.71-2.34,5.61
		c-7.1,1.76-12.31,7.61-12.31,14.58c0,4.46,2.15,8.46,5.55,11.22c-3.07,27.33-22.59,61.2-58.1,85.67c0,0,23.87,24.66,46.7,18.32
		c21.88-6.08,36.57-41.59,31.4-102.34c2.79-1.56,5.03-3.82,6.42-6.53c0.99-1.93,1.56-4.07,1.56-6.34c0-3.94-1.69-7.52-4.42-10.22
		c0.63-1.82,1.46-3.59,2.46-5.3c2.77-4.74,6.86-9.07,11.83-13.01c2.14-1.7,4.44-3.32,6.86-4.87c2.52-1.61,5.16-3.13,7.89-4.59
		c1.97-1.04,3.97-2.04,6.01-3.01c4.07-1.83,8.47-3.6,13.18-5.3c1.39-0.5,2.8-1,4.24-1.48c2.49-0.85,5.06-1.67,7.7-2.49
		c0.24-0.07,0.47-0.15,0.71-0.22c3.79-1.14,7.56-2.21,11.26-3.18c23.84-6.26,44.35-8.92,45.34-9.05c4.75-0.6,9.15,2.39,9.83,6.68
		c0.67,4.29-2.64,8.27-7.4,8.87c-0.22,0.02-17.6,2.28-38.36,7.42c-4.98,1.23-10.16,2.63-15.35,4.2c-2.4,0.73-4.71,1.47-6.95,2.23
		c-2.01,0.67-3.96,1.36-5.85,2.06c-1.93,0.71-3.78,1.43-5.58,2.16c-1.5,0.61-2.96,1.23-4.37,1.86c-2.61,1.16-5.07,2.34-7.35,3.54
		c-0.5,0.26-0.99,0.53-1.47,0.79l0.96,0.27l7.91,2.19l7.95,2.2l63.09,17.45c0.68,0.18,1.39,0.28,2.09,0.28
		c0.71,0,1.42-0.1,2.11-0.28l63-17.43l7.93-2.19l7.92-2.19l94.58-26.16c3.02-0.84,5.08-3.34,5.08-6.19
		C585.44,134.17,583.39,131.66,580.37,130.83z"/>
</g>
</svg>
