<svg id="Layer_1" data-name="Layer 1" xmlns="http://www.w3.org/2000/svg" viewBox="0 0 551.91 260.49"><defs><style>.cls-1{fill:#ad8845;}</style></defs><path class="cls-1" d="M131.16,193.93H120.52V175.76h50.26c21,0,36,10.8,36,30,0,12.93-7,21.28-14.08,24.88v.33c12.6,3.76,18.66,15.55,18.66,27.34,0,23.24-18.5,33.72-40.11,33.72h-29c-7.7,0-11.14-3.27-11.14-11.13ZM171,223.23c9,0,14.07-6.54,14.07-14.89s-4.91-14.41-14.4-14.41h-18v29.3Zm-14.74,50.59h16.7c10.48,0,16.37-7,16.37-16.86,0-9.66-6.06-16.7-16.37-16.7h-20.3v30A3.28,3.28,0,0,0,156.21,273.82Z" transform="translate(-120.05 -175.76)"/><path class="cls-1" d="M262,206.53c23.9,0,37,17.52,37,39.62,0,2.46-.49,7.7-.49,7.7H240.89c1.63,14.73,12.44,22.42,25,22.42,13.43,0,23.41-9.33,23.41-9.33L298,281.35A50.79,50.79,0,0,1,264.46,294c-27.67,0-44.86-20-44.86-43.7C219.6,224.54,237,206.53,262,206.53Zm15.72,32.91c-.33-10-7.2-16.86-15.72-16.86-10.64,0-18.17,6.38-20.46,16.86Z" transform="translate(-120.05 -175.76)"/><path class="cls-1" d="M349.77,206.53c23.9,0,37,17.52,37,39.62,0,2.46-.49,7.7-.49,7.7H328.65c1.64,14.73,12.44,22.42,25.05,22.42,13.42,0,23.41-9.33,23.41-9.33l8.68,14.41A50.79,50.79,0,0,1,352.23,294c-27.67,0-44.86-20-44.86-43.7C307.37,224.54,324.72,206.53,349.77,206.53Zm15.72,32.91c-.33-10-7.21-16.86-15.72-16.86-10.64,0-18.17,6.38-20.46,16.86Z" transform="translate(-120.05 -175.76)"/><path class="cls-1" d="M405.51,229.78c0-2.45-1.31-3.6-3.6-3.6h-6.55V208.5h19c7.37,0,11.13,3.11,11.13,10.15v4.91a39,39,0,0,1-.32,5.24h.32c3.77-12,13.76-21.45,26.53-21.45a26.38,26.38,0,0,1,3.76.33v20.46a37.79,37.79,0,0,0-5.07-.32c-8.84,0-19,5.07-22.76,17.51a50.37,50.37,0,0,0-1.8,13.59V292H405.51Z" transform="translate(-120.05 -175.76)"/><path class="cls-1" d="M132.16,403.17s12,13.76,28.16,13.76c8.84,0,16.7-4.75,16.7-13.76,0-19.8-54.68-18.17-54.68-54.35,0-18.82,16.37-32.74,38.8-32.74,13.59,0,34.54,6.39,34.54,22.92v10.81H176.36v-5.24c0-5.4-7.69-9-15.39-9-9.82,0-17,5.08-17,12.45,0,19.8,54.68,15.87,54.68,54,0,18.5-14.25,34.21-38.64,34.21a53.54,53.54,0,0,1-39.94-18Z" transform="translate(-120.05 -175.76)"/><path class="cls-1" d="M250.81,348.82c10.8,0,30.29,4.43,30.29,18.83v9.82H262.76v-4.58c0-4.58-6.88-6.55-11.95-6.55-14.41,0-24.72,11-24.72,26,0,17,12.6,25.7,26,25.7,14.24,0,24.72-11.29,24.72-11.29l8.68,14.4a47.76,47.76,0,0,1-35.2,15.06c-27.51,0-45.19-19.48-45.19-43.7C205.13,369,222.16,348.82,250.81,348.82Z" transform="translate(-120.05 -175.76)"/><path class="cls-1" d="M295.27,337.25c0-2.45-1.31-3.6-3.6-3.6h-6.55V316h19.81c7.69,0,11.13,3.44,11.13,11v31.38a70.17,70.17,0,0,1-.33,7h.33c3.93-8,14.24-16.54,28.65-16.54,18.66,0,29.14,9.66,29.14,31.76v32.58a3.28,3.28,0,0,0,3.6,3.6H384v17.52H364.19c-7.69,0-11-3.28-11-11.13V384.84c0-10.15-2.78-17-13.26-17-11,0-19.48,7.21-22.59,17.36a37.64,37.64,0,0,0-1.31,10.8v38.31H295.27Z" transform="translate(-120.05 -175.76)"/><path class="cls-1" d="M431.8,348.82c25.53,0,45.83,18.18,45.83,43.72,0,25.7-20.3,43.7-45.83,43.7s-45.68-18-45.68-43.7C386.12,367,406.42,348.82,431.8,348.82Zm0,69.74c13.58,0,24.88-10.47,24.88-26,0-15.39-11.3-26-24.88-26s-24.73,10.65-24.73,26C407.07,408.09,418.37,418.56,431.8,418.56Z" transform="translate(-120.05 -175.76)"/><path class="cls-1" d="M489.05,337.25c0-2.45-1.31-3.6-3.6-3.6H478.9V316h19.81c7.7,0,11.14,3.44,11.14,11.13v86.06a3.28,3.28,0,0,0,3.6,3.6h6.38v17.52H500.19c-7.86,0-11.14-3.28-11.14-11.13Z" transform="translate(-120.05 -175.76)"/><path class="cls-1" d="M575.64,381.89h2.62v-.65c0-11.95-4.75-16.37-15.39-16.37-3.76,0-11.13,1-11.13,5.56v4.42H532.42V366c0-15.55,21.94-17.19,30.62-17.19,27.83,0,36,14.57,36,33.24v31.1a3.28,3.28,0,0,0,3.6,3.6h6.55v17.52H590.54c-7.7,0-10.64-4.26-10.64-9.17,0-2.13.16-3.6.16-3.6h-.33s-6.38,14.73-25.21,14.73c-14.9,0-28.48-9.33-28.48-26C526,384,562.05,381.89,575.64,381.89ZM559.6,420c11.13,0,19-11.79,19-21.94v-2H575c-10.81,0-28,1.47-28,13.09C547,414.8,551.08,420,559.6,420Z" transform="translate(-120.05 -175.76)"/><path class="cls-1" d="M621.69,372.07c0-2.46-1.31-3.6-3.6-3.6h-6.55V350.79h19c7.36,0,11.13,3.11,11.13,10.15v4.91a37.82,37.82,0,0,1-.33,5.24h.33c3.76-11.95,13.75-21.45,26.52-21.45A26.38,26.38,0,0,1,672,350v20.46a37.6,37.6,0,0,0-5.07-.32c-8.84,0-19,5.07-22.76,17.51a50.77,50.77,0,0,0-1.8,13.59v33.07H621.69Z" transform="translate(-120.05 -175.76)"/></svg>